<svg height="512pt" viewBox="0 0 512 512" width="512pt" xmlns="http://www.w3.org/2000/svg"><path d="m310.332031 16.425781c-107.78125 25.746094-191.664062 125.597657-191.664062 239.574219s83.882812 213.828125 191.667969 239.574219c107.777343-25.746094 191.664062-125.597657 191.664062-239.574219s-83.886719-213.828125-191.667969-239.574219zm0 0" fill="#4dbbeb"/><path d="m367.210938 184.789062c11.71875 11.710938 11.71875 30.710938 0 42.421876l-120 120c-5.859376 5.859374-13.53125 8.789062-21.210938 8.789062s-15.351562-2.929688-21.210938-8.789062l-60-60c-11.71875-11.710938-11.71875-30.710938 0-42.421876 11.722657-11.71875 30.699219-11.71875 42.421876 0l38.789062 38.789063 98.789062-98.789063c11.722657-11.71875 30.699219-11.71875 42.421876 0zm0 0" fill="#fff"/><path d="m491.375 157.660156c-13.148438-30.296875-31.855469-57.695312-55.597656-81.4375-23.742188-23.742187-51.140625-42.449218-81.4375-55.597656-31.53125-13.6875-64.617188-20.625-98.339844-20.625s-66.808594 6.9375-98.339844 20.625c-30.296875 13.148438-57.695312 31.855469-81.4375 55.597656-23.742187 23.742188-42.449218 51.140625-55.597656 81.4375-13.6875 31.53125-20.625 64.617188-20.625 98.339844s6.9375 66.808594 20.625 98.339844c13.148438 30.296875 31.855469 57.695312 55.597656 81.4375 23.742188 23.742187 51.140625 42.449218 81.4375 55.597656 31.53125 13.6875 64.617188 20.625 98.339844 20.625s66.808594-6.9375 98.339844-20.625c30.296875-13.148438 57.695312-31.855469 81.4375-55.597656 23.742187-23.742188 42.449218-51.140625 55.597656-81.4375 13.6875-31.53125 20.625-64.617188 20.625-98.339844s-6.9375-66.808594-20.625-98.339844zm-235.375 334.339844c-127.925781 0-236-108.074219-236-236s108.074219-236 236-236 236 108.074219 236 236-108.074219 236-236 236zm0 0"/><path d="m451.976562 173.804688c-10.871093-25.257813-26.363281-48.042969-46.050781-67.730469-19.6875-19.683594-42.472656-35.179688-67.730469-46.046875-26.246093-11.300782-53.902343-17.027344-82.195312-17.027344-38.460938 0-78.554688 13.132812-115.945312 37.980469-4.601563 3.058593-5.851563 9.265625-2.792969 13.863281 3.054687 4.601562 9.261719 5.851562 13.863281 2.792969 34.097656-22.660157 70.363281-34.636719 104.875-34.636719 104.617188 0 193 88.382812 193 193s-88.382812 193-193 193-193-88.382812-193-193c0-34.503906 11.976562-70.769531 34.628906-104.878906 3.054688-4.597656 1.804688-10.804688-2.796875-13.859375-4.601562-3.058594-10.804687-1.804688-13.863281 2.796875-24.839844 37.394531-37.96875 77.488281-37.96875 115.941406 0 28.292969 5.726562 55.949219 17.023438 82.195312 10.871093 25.257813 26.363281 48.042969 46.050781 67.730469 19.6875 19.683594 42.472656 35.179688 67.730469 46.046875 26.246093 11.300782 53.902343 17.027344 82.195312 17.027344s55.949219-5.726562 82.195312-17.023438c25.257813-10.871093 48.042969-26.363281 67.730469-46.050781 19.683594-19.6875 35.179688-42.472656 46.046875-67.730469 11.300782-26.246093 17.027344-53.902343 17.027344-82.195312s-5.726562-55.949219-17.023438-82.195312zm0 0"/><path d="m137.71875 294.28125 60 60c7.558594 7.558594 17.601562 11.71875 28.28125 11.71875s20.722656-4.160156 28.28125-11.71875l119.996094-119.996094c7.558594-7.554687 11.722656-17.597656 11.722656-28.285156s-4.164062-20.730469-11.71875-28.28125c-7.558594-7.558594-17.601562-11.71875-28.28125-11.71875s-20.722656 4.160156-28.28125 11.71875l-91.71875 91.71875-31.71875-31.71875c-7.558594-7.558594-17.601562-11.71875-28.28125-11.71875s-20.722656 4.160156-28.277344 11.714844c-7.558594 7.554687-11.722656 17.597656-11.722656 28.285156s4.164062 20.730469 11.71875 28.28125zm14.140625-42.421875c3.78125-3.777344 8.800781-5.859375 14.140625-5.859375s10.359375 2.082031 14.140625 5.859375l45.859375 45.863281 105.859375-105.863281c3.78125-3.777344 8.800781-5.859375 14.140625-5.859375s10.359375 2.082031 14.140625 5.863281c3.777344 3.777344 5.859375 8.796875 5.859375 14.136719s-2.082031 10.359375-5.859375 14.140625l-120 120c-3.78125 3.777344-8.800781 5.859375-14.140625 5.859375s-10.359375-2.082031-14.140625-5.859375l-60-60.003906c-3.777344-3.777344-5.859375-8.796875-5.859375-14.136719s2.082031-10.359375 5.859375-14.140625zm0 0"/><path d="m115 105c-5.519531 0-10 4.480469-10 10s4.480469 10 10 10 10-4.480469 10-10-4.480469-10-10-10zm0 0"/></svg>