<svg height="512pt" viewBox="-43 0 512 512" width="512pt" xmlns="http://www.w3.org/2000/svg"><path d="m223.738281 441.925781h-62.441406c-33.179687 0-60.074219 26.894531-60.074219 60.074219h182.589844c0-33.179688-26.894531-60.074219-60.074219-60.074219zm0 0" fill="#4dbaf6"/><path d="m163.496094 361.390625-25.273438 80.535156h42.726563v-72.320312zm0 0" fill="#6a80ff"/><path d="m274.394531 374.316406c29.851563-5.265625 57.636719-18.851562 79.789063-41l-227.652344-227.652344c-34.742188 64.101563-20.214844 151.554688 40.4375 212.210938 31.03125 31.027344 69.078125 49.976562 107.425781 56.441406zm0 0" fill="#9bf"/><path d="m354.179688 333.308594c25.804687-25.804688-11.738282-105.1875-83.859376-177.304688-72.117187-72.121094-151.5-109.664062-177.308593-83.859375-25.804688 25.804688 11.742187 105.1875 83.859375 177.308594 72.121094 72.117187 151.503906 109.660156 177.308594 83.855469zm0 0" fill="#fff"/><path d="m206.378906 274.34375 2.917969-2.917969c15.191406-15.191406 15.191406-39.820312 0-55.011719-15.191406-15.1875-39.816406-15.1875-55.007813 0l-2.921874 2.921876" fill="#72d8ff"/><path d="m311.609375 136.351562c0 12.289063-9.960937 22.25-22.25 22.25s-22.25-9.960937-22.25-22.25c0-12.285156 9.960937-22.25 22.25-22.25s22.25 9.964844 22.25 22.25zm0 0" fill="#ffb954"/><path d="m298.886719 186.882812c-4.273438 3.480469-4.925781 9.769532-1.453125 14.050782.117187.148437.265625.320312.390625.460937 1.976562 2.167969 4.683593 3.269531 7.402343 3.269531 2.402344 0 4.808594-.855468 6.726563-2.597656 3.992187-3.632812 4.371094-9.757812.914063-13.851562-3.503907-4.1875-9.730469-4.792969-13.980469-1.332032zm0 0"/><path d="m333.453125 215.703125c-3.125-4.550781-9.351563-5.710937-13.902344-2.582031-4.554687 3.125-5.710937 9.351562-2.585937 13.902344 16.375 23.851562 27.652344 46.246093 32.621094 64.757812 4.363281 16.265625 3.484374 28.503906-2.476563 34.460938-9 9.003906-31.410156 6.320312-59.9375-7.175782-21.335937-10.089844-44.476563-25.304687-67.503906-44.21875 13.566406-16.589844 14.578125-40.082031 3.042969-57.703125l52.042968-52.042969c4.574219 2.320313 9.589844 3.488282 14.605469 3.488282 8.257813 0 16.519531-3.144532 22.804687-9.429688 12.574219-12.574218 12.574219-33.035156 0-45.609375-12.574218-12.574219-33.035156-12.574219-45.609374 0-10.105469 10.105469-12.082032 25.304688-5.941407 37.410157l-52.042969 52.039062c-7.886718-5.1875-17.117187-7.976562-26.777343-7.976562-11.378907 0-22.164063 3.867187-30.859375 10.964843-18.660156-22.804687-33.679688-45.703125-43.671875-66.832031-13.496094-28.53125-16.179688-50.9375-7.175781-59.9375 13.460937-13.464844 60.730468-1.613281 121.808593 46.871094 4.328125 3.433594 10.617188 2.710937 14.050781-1.613282 3.433594-4.328124 2.710938-10.617187-1.613281-14.050781-29.988281-23.804687-59.257812-41.066406-84.648437-49.917969-36.253906-12.640624-54.667969-4.5-63.734375 4.558594 0 .003906-.003907.007813-.007813.007813-32.8125 32.816406-49.179687 78.046875-46.078125 127.363281 3.070313 48.84375 24.917969 95.902344 61.519531 132.507812 6.492188 6.492188 13.320313 12.507813 20.421876 18.050782-.027344.074218-.058594.148437-.082032.226562l-27.839844 88.703125h-23.808593c-38.640625 0-70.074219 31.433594-70.074219 70.074219 0 5.523438 4.476562 10 10 10h273.816406c5.519532 0 10-4.476562 10-10 0-38.640625-31.4375-70.074219-70.074218-70.074219h-32.789063v-53.105469c14.003906 4.140626 28.390625 6.730469 42.9375 7.644532 3.953125.25 7.875.375 11.769531.375 44.714844-.003906 85.410156-16.269532 115.597656-46.453125 7.941407-7.941407 15.714844-23.722657 7.648438-53.789063-5.550781-20.679687-17.8125-45.191406-35.453125-70.894531zm-52.757813-88.011719c2.390626-2.390625 5.527344-3.582031 8.664063-3.582031s6.273437 1.191406 8.660156 3.582031c4.777344 4.773438 4.777344 12.546875 0 17.324219-4.773437 4.773437-12.546875 4.773437-17.324219 0-4.773437-4.777344-4.773437-12.546875 0-17.324219zm-98.902343 87.332032c7.714843 0 14.96875 3 20.421875 8.453124.003906.003907.007812.007813.011718.011719 0 0 .003907.003907.007813.007813 10.449219 10.457031 11.191406 26.988281 2.242187 38.316406-6.910156-6.183594-13.773437-12.667969-20.535156-19.429688-6.96875-6.96875-13.648437-14.050781-20.003906-21.179687 5.074219-4.003906 11.292969-6.179687 17.855469-6.179687zm91.015625 276.976562h-251.808594c4.648438-22.839844 24.886719-40.074219 49.074219-40.074219h153.664062c24.1875 0 44.425781 17.234375 49.070313 40.074219zm-101.855469-60.074219h-56.109375l24.109375-76.828125c10.257813 6.507813 20.960937 12.078125 32 16.648438zm-55.429687-121.125c-33.15625-33.15625-52.9375-75.636719-55.703126-119.617187-1.832031-29.183594 4.007813-56.675782 16.707032-80.28125 2.101562 11.058594 6.316406 23.40625 12.652344 36.804687 16.320312 34.503907 44.953124 73.148438 80.621093 108.820313 35.671875 35.671875 74.316407 64.300781 108.820313 80.621094 13.371094 6.324218 25.695312 10.53125 36.738281 12.640624-60.234375 32.242188-142.648437 18.199219-199.835937-38.988281zm0 0"/><path d="m289.511719 53.386719c-5.523438 0-10 4.476562-10 10 0 5.519531 4.476562 10 10 10 34.636719 0 62.816406 28.175781 62.816406 62.8125 0 5.523437 4.476563 10 10 10 5.519531 0 10-4.476563 10-10 0-45.664063-37.152344-82.8125-82.816406-82.8125zm0 0"/><path d="m289.511719 0c-5.523438 0-10 4.476562-10 10s4.476562 10 10 10c64.074219 0 116.199219 52.128906 116.199219 116.199219 0 5.523437 4.480468 10 10 10 5.523437 0 10-4.476563 10-10 0-75.097657-61.097657-136.199219-136.199219-136.199219zm0 0"/></svg>