<svg id="Capa_1" enable-background="new 0 0 512 512" height="512" viewBox="0 0 512 512" width="512" xmlns="http://www.w3.org/2000/svg"><g><g><path d="m473.952 16.674h-435.904c-16.871 0-30.548 13.677-30.548 30.548v226.116h497v-226.116c0-16.871-13.677-30.548-30.548-30.548z" fill="#bec6ed"/><path d="m473.952 16.674h-26.5c16.871 0 30.548 13.677 30.548 30.549v226.116h26.5v-226.117c0-16.871-13.677-30.548-30.548-30.548z" fill="#a2aee6"/><g><path d="m425.688 235.43-72.36-25.238h-87.328c-8.284 0-15-6.716-15-15v-35.186h-49.1c-5.815 0-11.107-3.362-13.578-8.626l-24.751-52.725h-88.307v-30h97.836c5.815 0 11.107 3.361 13.578 8.626l24.751 52.725h54.571c8.284 0 15 6.716 15 15v35.186h75.045c1.797 0 3.58.323 5.263.954l74.905 26.192z" fill="#fea3c6"/></g><path d="m504.5 273.338h-497v140.367c0 16.871 13.677 30.548 30.548 30.548h189.639l24.294 48.588c1.656 3.312 6.382 3.312 8.038 0l24.294-48.588h189.639c16.871 0 30.548-13.677 30.548-30.548z" fill="#faf8f8"/><g fill="#f0eae8"><path d="m242.75 474.38 9.231 18.462c1.656 3.312 6.382 3.312 8.038 0l24.294-48.588h-17.816c-5.322 0-10.187 3.007-12.567 7.767z"/><path d="m478 273.338v140.367c0 16.871-13.677 30.548-30.548 30.548h26.5c16.871 0 30.548-13.677 30.548-30.548v-140.367z"/></g><circle cx="64.242" cy="83.655" fill="#4f66d0" r="21.021"/><path d="m64.242 62.634c-3.821 0-7.394 1.036-10.481 2.818 6.294 3.632 10.54 10.415 10.54 18.204 0 7.788-4.246 14.572-10.54 18.204 3.088 1.782 6.66 2.818 10.481 2.818 11.61 0 21.021-9.412 21.021-21.021 0-11.612-9.411-21.023-21.021-21.023z" fill="#314dc9"/><circle cx="438.122" cy="221.383" fill="#fd3581" r="21.021"/><path d="m438.122 200.362c-3.821 0-7.394 1.036-10.481 2.818 6.294 3.632 10.54 10.415 10.54 18.204s-4.246 14.572-10.54 18.204c3.088 1.782 6.66 2.818 10.481 2.818 11.61 0 21.021-9.411 21.021-21.021.001-11.611-9.411-21.023-21.021-21.023z" fill="#fe0364"/><path d="m438.122 65.896c-19.626 0-35.537 15.91-35.537 35.537 0 30.281 35.537 71.686 35.537 71.686s35.537-41.405 35.537-71.686c0-19.627-15.91-35.537-35.537-35.537z" fill="#fd3581"/><path d="m438.122 65.896c-4.685 0-9.154.916-13.25 2.563 13.061 5.254 22.287 18.032 22.287 32.974 0 17.733-12.186 39.278-22.287 54.091 7.147 10.482 13.25 17.595 13.25 17.595s35.537-41.405 35.537-71.686c0-19.627-15.91-35.537-35.537-35.537z" fill="#fe0364"/><g><path d="m344.01 411.923h-267.791c-17.751 0-32.141-14.39-32.141-32.141 0-17.751 14.39-32.141 32.141-32.141h267.791c17.751 0 32.141 14.39 32.141 32.141 0 17.751-14.39 32.141-32.141 32.141z" fill="#c8effe"/><path d="m317.51 411.923h-45.869c-17.751 0-32.141-14.39-32.141-32.141 0-17.751 14.39-32.141 32.141-32.141h45.869c17.751 0 32.141 14.39 32.141 32.141 0 17.751-14.39 32.141-32.141 32.141z" fill="#99e6fc"/><path d="m344.01 411.923h-45.869c-17.751 0-32.141-14.39-32.141-32.141 0-17.751 14.39-32.141 32.141-32.141h45.869c17.751 0 32.141 14.39 32.141 32.141 0 17.751-14.39 32.141-32.141 32.141z" fill="#6bd9e7"/><path d="m344.01 347.642h-26.5c17.751 0 32.141 14.39 32.141 32.141 0 17.751-14.39 32.141-32.141 32.141h26.5c17.751 0 32.141-14.39 32.141-32.141 0-17.752-14.391-32.141-32.141-32.141z" fill="#00c7d1"/></g></g><g><path d="m412.862 388.8c1.919 0 3.839-.732 5.304-2.197l36.175-36.175c2.145-2.145 2.786-5.371 1.625-8.173-1.16-2.803-3.896-4.63-6.929-4.63h-24.986c-4.143 0-7.5 3.358-7.5 7.5s3.357 7.5 7.5 7.5h6.88l-23.372 23.372c-2.929 2.929-2.929 7.678 0 10.606 1.464 1.464 3.384 2.197 5.303 2.197z"/><path d="m425.95 404.187c1.16 2.803 3.896 4.63 6.929 4.63h24.986c4.143 0 7.5-3.358 7.5-7.5s-3.357-7.5-7.5-7.5h-6.88l23.372-23.372c2.929-2.929 2.929-7.678 0-10.606-2.93-2.929-7.678-2.929-10.607 0l-36.175 36.175c-2.144 2.144-2.786 5.37-1.625 8.173z"/><path d="m78.07 372.729c-4.142 0-7.5 3.358-7.5 7.5s3.358 7.5 7.5 7.5h132.044c4.142 0 7.5-3.358 7.5-7.5s-3.358-7.5-7.5-7.5z"/><path d="m328.518 372.282h-11.733c-4.143 0-7.5 3.358-7.5 7.5s3.357 7.5 7.5 7.5h11.733c4.143 0 7.5-3.358 7.5-7.5s-3.358-7.5-7.5-7.5z"/><path d="m438.122 58.396c-23.73 0-43.036 19.306-43.036 43.037 0 13.992 6.365 31.214 18.918 51.189 9.076 14.442 18.049 24.942 18.427 25.382 1.425 1.66 3.504 2.615 5.691 2.615s4.267-.956 5.691-2.615c.377-.44 9.351-10.94 18.427-25.382 12.554-19.975 18.919-37.197 18.919-51.189 0-23.731-19.306-43.037-43.037-43.037zm-.004 102.742c-11.062-14.542-28.032-40.869-28.032-59.705 0-15.459 12.577-28.037 28.036-28.037 15.46 0 28.037 12.577 28.037 28.037 0 18.798-16.977 45.149-28.041 59.705z"/><path d="m44.078 319.637c4.028 0 7.293-3.265 7.293-7.293s-3.265-7.293-7.293-7.293-7.293 3.265-7.293 7.293 3.265 7.293 7.293 7.293z"/><path d="m438.29 97.383c-4.028 0-7.293 3.265-7.293 7.293s3.265 7.293 7.293 7.293 7.293-3.265 7.293-7.293-3.265-7.293-7.293-7.293z"/><path d="m78.07 319.844h83.149c4.142 0 7.5-3.358 7.5-7.5s-3.358-7.5-7.5-7.5h-83.149c-4.142 0-7.5 3.358-7.5 7.5s3.358 7.5 7.5 7.5z"/><path d="m76.219 419.423h267.791c21.26.047 39.812-17.82 39.641-39.641.204-21.095-17.848-39.794-39.641-39.641h-45.869c-21.858 0-39.641 17.783-39.641 39.641 0 9.308 3.233 17.87 8.623 24.641h-190.904c-13.587 0-24.641-11.054-24.641-24.641s11.054-24.641 24.641-24.641h169.772c4.142 0 7.5-3.358 7.5-7.5s-3.358-7.5-7.5-7.5h-169.772c-21.858 0-39.641 17.783-39.641 39.641 0 21.859 17.783 39.641 39.641 39.641zm197.281-39.641c0-13.587 11.054-24.641 24.641-24.641h45.869c13.587 0 24.641 11.054 24.641 24.641s-11.054 24.641-24.641 24.641h-45.869c-13.587 0-24.641-11.053-24.641-24.641z"/><path d="m266 217.688h86.06l64.709 22.574c5.229 5.908 12.861 9.643 21.353 9.643 15.727 0 28.521-12.795 28.521-28.521s-12.795-28.521-28.521-28.521c-4.453 0-8.67 1.028-12.429 2.855l-61.842-21.627c-2.524-.931-5.151-1.403-7.811-1.403h-67.54v-27.68c0-12.407-10.094-22.5-22.5-22.5h-49.805l-22.726-48.418c-3.689-7.856-11.684-12.932-20.369-12.932h-56.424c-4.142 0-7.5 3.358-7.5 7.5s3.358 7.5 7.5 7.5h56.424c2.896 0 5.562 1.691 6.791 4.307l24.75 52.73c1.236 2.632 3.882 4.313 6.79 4.313h54.569c4.136 0 7.5 3.365 7.5 7.5v35.18c0 4.142 3.357 7.5 7.5 7.5h75.04c.892 0 1.782.164 2.647.487.049.018.098.036.146.053l54.509 19.062c-2.376 4.161-3.741 8.969-3.741 14.094 0 .166.01.33.013.495l-53.813-18.773c-.795-.277-1.63-.418-2.471-.418h-87.33c-4.136 0-7.5-3.364-7.5-7.5v-35.18c0-4.142-3.358-7.5-7.5-7.5h-49.1c-2.896 0-5.561-1.693-6.791-4.317l-24.75-52.72c-1.236-2.632-3.881-4.313-6.789-4.313h-71.815c.653-2.392 1.008-4.906 1.008-7.502 0-15.727-12.794-28.521-28.521-28.521s-28.521 12.794-28.521 28.521 12.794 28.521 28.521 28.521c6.589 0 12.659-2.252 17.494-6.019h77.069l22.724 48.403c3.687 7.865 11.683 12.947 20.371 12.947h41.6v27.68c0 12.406 10.093 22.5 22.5 22.5zm185.644 3.695c0 7.456-6.065 13.521-13.521 13.521-7.455 0-13.521-6.066-13.521-13.521s6.065-13.521 13.521-13.521c7.455 0 13.521 6.066 13.521 13.521zm-400.923-137.728c0-7.456 6.065-13.521 13.521-13.521s13.522 6.066 13.522 13.521-6.066 13.521-13.521 13.521-13.522-6.065-13.522-13.521z"/><path d="m59.456 219.357h-15.378c-4.142 0-7.5 3.358-7.5 7.5s3.358 7.5 7.5 7.5h15.378c4.142 0 7.5-3.358 7.5-7.5s-3.358-7.5-7.5-7.5z"/><path d="m59.456 186.367h-15.378c-4.142 0-7.5 3.358-7.5 7.5s3.358 7.5 7.5 7.5h15.378c4.142 0 7.5-3.358 7.5-7.5s-3.358-7.5-7.5-7.5z"/><path d="m504.5 245.831c4.143 0 7.5-3.358 7.5-7.5v-191.109c0-20.98-17.068-38.048-38.049-38.048h-435.903c-20.98 0-38.048 17.068-38.048 38.048v366.484c0 20.98 17.068 38.048 38.048 38.048h185.003l22.221 44.442c2.045 4.09 6.156 6.63 10.729 6.629 4.572 0 8.682-2.542 10.725-6.63l22.221-44.442h185.004c20.98 0 38.049-17.068 38.049-38.048v-140.367c0-4.142-3.357-7.5-7.5-7.5h-489.5v-218.616c0-12.709 10.339-23.048 23.048-23.048h435.903c12.709 0 23.049 10.339 23.049 23.048v191.109c0 4.142 3.357 7.5 7.5 7.5zm-7.5 35.007v132.868c0 12.709-10.34 23.048-23.049 23.048h-189.639c-2.841 0-5.437 1.605-6.708 4.146l-21.604 43.209-21.605-43.209c-1.271-2.541-3.867-4.146-6.708-4.146h-189.639c-12.709 0-23.048-10.339-23.048-23.048v-132.868z"/></g></g></svg>